<svg xmlns="http://www.w3.org/2000/svg" viewBox="0 0 32 32" width="32" height="32">
  <circle cx="16" cy="16" r="16" fill="#F7931A"/>
  <path d="M22.6 14.3c.3-2.1-1.3-3.2-3.5-4l.7-2.8-1.7-.4-.7 2.7-.7-.2.7-2.7-1.7-.4-.7 2.8c-.2 0-.4-.1-.6-.1v-.1l-2.4-.6-.5 1.8s1.3.3 1.2.3c.7.2.8.6.8 1l-.8 3.3c0 .1.1.1.1.1h-.1l-1.1 4.5c-.1.2-.3.5-.7.4.0.1-1.2-.3-1.2-.3l-.8 2 2.2.6.7.2-.7 2.8 1.7.4.7-2.8.7.2-.7 2.8 1.7.4.7-2.8c2.9.5 5 .3 5.9-2.3.7-2-.0-3.2-1.5-3.9 1.1-.2 1.9-1 2.1-2.4zm-3.8 5.3c-.5 2-3.9.9-5 .6l.9-3.6c1.1.3 4.6.8 4.1 3zm.5-5.3c-.5 1.8-3.3.9-4.3.7l.8-3.3c1 .2 4.1.7 3.5 2.6z" fill="#fff"/>
</svg>
